<?xml version="1.0" standalone="no"?>
<!DOCTYPE svg PUBLIC "-//W3C//DTD SVG 20010904//EN"
 "http://www.w3.org/TR/2001/REC-SVG-20010904/DTD/svg10.dtd">
<svg version="1.0" xmlns="http://www.w3.org/2000/svg"
 width="1072.000000pt" height="1072.000000pt" viewBox="0 0 1072.000000 1072.000000"
 preserveAspectRatio="xMidYMid meet">
<metadata>
Created by potrace 1.14, written by Peter Selinger 2001-2017
</metadata>
<g transform="translate(0.000000,1072.000000) scale(0.100000,-0.100000)"
fill="#000000" stroke="none">
<path d="M3062 7010 c-82 -22 -133 -52 -186 -111 -88 -98 -117 -186 -118 -370
-1 -74 -4 -89 -17 -90 -9 -1 -50 -1 -91 -1 l-75 1 -1 -114 c-1 -110 0 -115 20
-116 11 0 53 -1 92 -1 l72 -1 0 -579 c0 -319 2 -582 5 -585 8 -7 218 -5 226 2
3 4 6 266 6 583 l0 577 93 0 c73 0 93 3 96 15 3 8 4 60 3 115 l-2 100 -95 0
-95 0 0 90 c-2 193 41 263 163 270 24 1 47 6 51 11 8 9 38 129 47 189 l5 30
-71 1 c-38 0 -96 -7 -128 -16z"/>
<path d="M3528 6788 l-3 -243 -90 0 -89 0 -2 -108 c-1 -127 -4 -124 109 -122
l77 2 0 -326 c0 -449 6 -595 24 -664 55 -201 183 -282 457 -288 67 -2 83 5 70
29 -5 10 -12 38 -16 62 -3 25 -13 69 -21 98 -14 49 -17 52 -47 53 -88 2 -145
22 -182 65 -43 50 -46 86 -43 538 l3 430 88 0 88 -1 -3 116 -3 116 -80 1 c-44
1 -83 2 -87 3 -5 0 -8 109 -8 241 l0 240 -120 0 -120 0 -2 -242z"/>
<path d="M119 7008 c-6 -13 -2 -1961 4 -1965 16 -9 1040 -4 1046 5 8 13 6 221
-2 229 -4 3 -187 6 -406 6 l-400 0 0 846 c0 465 -1 854 -1 864 0 15 -12 17
-120 17 -66 0 -121 -1 -121 -2z"/>
<path d="M4217 7003 c-2 -5 -4 -447 -3 -983 l1 -975 40 -5 c22 -3 77 -4 121
-2 l82 3 0 407 c0 224 1 419 1 435 l1 27 125 0 125 0 0 120 0 120 -125 0 -125
0 -1 33 c0 17 0 211 -1 430 l0 397 -118 0 c-66 0 -121 -3 -123 -7z"/>
<path d="M5107 7003 c-3 -5 -5 -190 -5 -413 0 -223 -1 -413 -1 -422 -1 -16
-14 -18 -126 -18 l-125 0 0 -120 0 -119 126 -3 127 -3 -1 -432 0 -432 57 -3
c31 -2 86 -2 124 0 l67 4 0 984 0 984 -119 0 c-66 0 -122 -3 -124 -7z"/>
<path d="M1936 6563 c-3 -3 -6 -56 -6 -118 l0 -111 31 -2 c75 -6 157 -62 188
-128 21 -43 21 -59 21 -403 -1 -342 -2 -360 -22 -400 -37 -75 -111 -131 -174
-131 -34 0 -39 -15 -40 -120 0 -87 8 -126 25 -116 3 2 27 7 54 10 49 7 78 16
137 44 110 52 228 200 246 307 9 56 9 750 -1 805 -29 173 -204 334 -384 355
-30 3 -58 8 -61 10 -4 3 -10 2 -14 -2z"/>
<path d="M6040 6567 c-3 -3 -31 -8 -63 -11 -155 -18 -303 -122 -373 -262 l-29
-59 0 -430 0 -430 24 -50 c79 -161 208 -259 373 -281 24 -4 45 -8 47 -10 2 -2
11 1 20 5 15 8 18 67 12 213 -1 12 -9 16 -29 16 -35 -1 -110 33 -142 65 -35
35 -61 67 -54 67 4 0 0 7 -7 17 -11 13 -14 85 -16 362 -1 328 6 431 28 431 5
0 9 6 9 13 0 39 116 107 181 107 23 0 29 5 30 23 6 145 2 226 -11 214z"/>
<path d="M6176 6563 c-3 -3 -6 -57 -6 -118 l0 -112 30 -1 c80 -2 180 -81 199
-157 7 -28 11 -167 11 -382 0 -335 0 -338 -24 -389 -38 -81 -99 -127 -178
-137 l-33 -3 0 -112 c-1 -104 2 -116 25 -114 167 15 284 85 374 222 39 59 47
78 62 145 7 28 6 752 -1 795 -15 105 -138 261 -247 313 -59 29 -73 33 -148 43
-25 3 -48 8 -51 10 -3 2 -9 1 -13 -3z"/>
<path d="M6990 6560 c0 -3 -30 -4 -68 -3 l-68 3 1 -583 c1 -413 5 -594 13
-623 15 -53 78 -148 132 -201 48 -47 141 -97 210 -112 74 -17 119 -19 128 -7
4 6 8 58 7 116 l0 104 -62 17 c-85 22 -136 58 -170 122 -16 29 -18 81 -19 587
-1 305 -3 560 -3 567 -1 10 -101 24 -101 13z"/>
<path d="M7722 6556 c-4 -6 -7 -261 -8 -566 0 -510 -2 -558 -18 -592 -33 -69
-103 -121 -177 -131 -20 -2 -41 -7 -45 -10 -15 -9 -9 -218 6 -227 8 -5 17 -7
20 -5 3 1 26 6 52 9 26 4 56 9 65 13 138 48 236 134 300 262 l37 73 1 580 c0
319 -2 583 -5 588 -3 4 -23 7 -46 7 -22 0 -44 2 -50 5 -5 3 -18 2 -28 -2 -11
-3 -37 -3 -58 0 -25 5 -41 3 -46 -4z"/>
<path d="M8468 6556 c-148 -60 -240 -127 -280 -206 -7 -14 -15 -27 -18 -30
-32 -29 -48 -240 -24 -310 37 -107 142 -206 256 -241 40 -13 169 -47 218 -59
70 -16 156 -41 185 -52 17 -7 36 -13 43 -14 29 -5 114 -69 129 -97 28 -55 12
-141 -37 -200 -32 -40 -102 -79 -163 -91 l-62 -13 0 -109 c0 -124 -11 -113 98
-100 143 17 299 122 361 243 38 75 58 223 41 307 -11 53 -56 135 -96 174 -46
45 -121 89 -169 97 -18 3 -37 8 -42 11 -4 3 -17 7 -29 9 -187 36 -420 116
-475 162 -115 96 -2 305 169 312 15 1 17 13 17 111 l0 111 -50 -3 c-27 -2 -59
-7 -72 -12z"/>
<path d="M8714 6458 c1 -93 4 -113 16 -113 51 -1 134 -37 178 -78 29 -27 60
-85 65 -123 2 -16 8 -29 13 -29 5 1 38 5 74 10 36 5 70 10 75 11 6 0 22 4 37
8 25 7 26 11 22 49 -5 49 -62 171 -98 208 -93 100 -201 154 -327 166 l-56 5 1
-114z"/>
<path d="M10009 6561 c-4 -19 -5 -198 -2 -207 2 -7 24 -15 47 -18 89 -14 180
-86 192 -155 4 -20 8 -82 8 -139 1 -84 -2 -102 -14 -103 -24 -1 -573 -1 -595
0 -19 1 -20 7 -20 114 1 131 17 173 87 230 49 40 79 51 144 56 7 1 11 39 11
112 l-1 111 -58 -6 c-72 -8 -159 -39 -214 -77 -89 -61 -181 -184 -199 -267 -4
-19 -7 -206 -7 -417 0 -345 2 -389 18 -432 40 -107 117 -199 216 -258 64 -38
108 -52 192 -61 l56 -6 0 111 c0 99 -2 111 -17 111 -65 0 -158 54 -200 115
-26 38 -27 44 -27 185 l-1 145 410 2 c226 2 418 3 427 3 14 0 17 11 17 73 0
39 1 79 1 87 1 8 1 31 1 50 0 19 -1 58 -1 85 -1 188 -6 230 -34 288 -25 51
-98 137 -151 177 -44 33 -135 69 -208 83 -42 8 -78 12 -78 8z"/>
<path d="M1705 6553 c-129 -29 -239 -104 -312 -213 -64 -96 -63 -88 -60 -547
2 -412 2 -419 25 -465 77 -161 220 -268 376 -284 27 -3 53 -7 57 -10 17 -10
25 35 24 131 l0 100 -33 2 c-70 6 -164 70 -199 136 -15 28 -17 73 -18 377 -2
365 2 399 45 460 32 44 93 80 150 87 57 7 56 4 55 133 l-1 95 -44 1 c-25 1
-54 -1 -65 -3z"/>
<path d="M8299 5476 c-3 -3 -36 -10 -74 -16 -39 -7 -77 -13 -85 -15 -8 -2 -18
-4 -21 -4 -14 -2 19 -129 46 -179 76 -141 223 -228 395 -234 35 -2 36 1 34
105 -1 56 -2 105 -3 109 0 3 -18 9 -39 13 -94 16 -196 106 -208 187 -5 27 -12
38 -24 38 -9 0 -19 -2 -21 -4z"/>
<path d="M10275 5448 c-8 -13 -15 -28 -15 -35 0 -7 -24 -36 -52 -66 -43 -43
-65 -56 -112 -70 -32 -9 -62 -14 -67 -12 -17 11 -24 -24 -24 -123 l-1 -103 55
5 c141 11 279 91 358 207 29 43 70 136 62 143 -2 2 -38 15 -79 30 -41 15 -83
31 -92 36 -13 7 -21 4 -33 -12z"/>
<path d="M3663 3824 c-4 -10 6 -27 26 -47 30 -31 35 -32 111 -32 73 0 81 2
108 28 30 29 36 57 13 65 -6 2 -21 -8 -32 -22 -41 -52 -137 -52 -177 -1 -23
29 -40 32 -49 9z"/>
<path d="M428 3639 c-10 -5 -13 -41 -13 -151 l0 -143 -40 -5 c-67 -9 -82 -1
-122 59 -21 31 -38 58 -38 61 0 3 -13 25 -29 50 -16 25 -40 64 -55 87 -23 38
-30 43 -64 43 l-38 0 16 -27 c9 -16 29 -48 45 -73 17 -25 33 -53 36 -62 4 -10
10 -18 15 -18 5 0 9 -4 9 -9 0 -6 18 -39 41 -74 l40 -65 -86 -134 c-48 -73
-99 -152 -115 -175 l-28 -41 22 -4 c39 -8 63 9 93 61 15 28 31 51 36 51 4 0 7
4 7 9 0 6 26 52 59 103 l58 93 69 0 69 0 1 -152 c0 -84 2 -155 5 -157 2 -2 18
-6 34 -8 l30 -3 3 162 2 163 70 -2 70 -2 40 -63 c22 -35 40 -66 40 -68 0 -2
23 -38 50 -79 28 -42 50 -80 50 -86 0 -5 12 -12 28 -16 15 -3 32 -7 39 -9 18
-6 23 6 12 28 -15 27 -186 289 -199 304 -5 7 -10 17 -10 22 0 10 139 241 150
251 4 3 9 12 13 20 4 8 13 23 19 33 16 22 -2 36 -38 29 -21 -4 -64 -48 -64
-66 0 -3 -32 -57 -71 -120 -75 -123 -77 -124 -156 -117 l-43 3 0 148 0 148
-24 4 c-13 3 -30 1 -38 -3z"/>
<path d="M1122 3642 c-9 -3 -12 -86 -12 -343 l0 -339 28 0 c36 0 41 4 97 85
26 39 52 72 57 73 4 2 8 8 8 13 0 6 5 15 10 22 6 7 30 39 55 72 24 33 48 65
52 70 5 6 22 30 38 55 17 25 38 54 48 65 10 11 30 39 45 62 15 24 30 43 33 43
3 0 5 -125 6 -277 l0 -277 34 -4 34 -3 0 337 c-1 331 -1 337 -21 345 -12 4
-25 4 -30 1 -5 -4 -41 -50 -79 -102 -38 -52 -75 -101 -82 -108 -7 -7 -13 -17
-13 -22 0 -5 -6 -15 -13 -22 -14 -15 -185 -249 -212 -290 -9 -15 -20 -26 -24
-24 -3 2 -6 130 -6 284 1 276 0 281 -20 284 -11 3 -26 3 -33 0z"/>
<path d="M2063 3640 c-21 -6 -21 -6 -28 -112 -5 -85 -10 -134 -29 -273 -17
-119 -68 -218 -121 -231 -19 -5 -21 -10 -16 -37 4 -18 10 -31 14 -31 69 13
100 37 134 105 19 38 39 100 48 149 17 95 34 238 39 337 1 12 4 25 8 28 9 10
197 9 206 0 4 -4 8 -138 8 -298 1 -161 2 -297 3 -303 1 -7 15 -14 31 -16 l30
-5 1 81 c2 278 -1 599 -5 604 -7 7 -299 9 -323 2z"/>
<path d="M2889 3640 c-108 -30 -198 -118 -234 -229 -29 -90 -20 -193 26 -284
25 -48 87 -117 105 -117 8 0 14 -4 14 -8 0 -14 102 -45 154 -46 180 -5 330
166 321 365 -6 126 -90 251 -203 301 -47 21 -139 30 -183 18z m175 -87 c55
-28 77 -50 107 -107 28 -52 34 -79 33 -156 -3 -193 -182 -327 -340 -254 -48
21 -112 87 -132 134 -52 126 -24 266 71 353 76 68 166 79 261 30z"/>
<path d="M3529 3639 c-10 -6 -16 -69 -9 -96 1 -5 1 -12 0 -18 -2 -8 -2 -514
-1 -551 1 -7 14 -14 29 -16 27 -4 35 5 118 120 49 68 95 131 102 140 101 136
205 280 209 289 15 39 19 -23 19 -271 -1 -151 0 -273 2 -271 2 2 17 -1 33 -5
20 -6 29 -5 30 3 5 59 3 656 -3 668 -4 9 -16 15 -27 14 -21 -1 -46 -31 -141
-165 -29 -41 -57 -76 -62 -78 -4 -2 -8 -8 -8 -13 0 -5 -7 -17 -15 -26 -8 -10
-59 -80 -114 -156 -54 -75 -101 -132 -103 -125 -2 7 -4 135 -3 285 l1 272 -23
4 c-12 2 -27 1 -34 -4z"/>
<path d="M4728 3642 c-16 -3 -17 -30 -15 -340 1 -249 5 -337 14 -337 6 0 14
-3 18 -7 4 -4 13 -4 21 -1 11 4 14 37 14 164 l0 158 55 0 54 -1 76 -102 c42
-55 82 -108 88 -116 7 -8 27 -34 44 -56 32 -40 86 -63 99 -43 3 5 -53 86 -124
180 l-129 172 66 91 c36 50 89 122 118 161 28 38 47 72 42 76 -5 3 -22 4 -38
1 -24 -3 -48 -30 -137 -152 -101 -137 -112 -148 -144 -152 -73 -7 -70 -13 -70
152 0 132 -2 148 -17 152 -10 2 -26 2 -35 0z"/>
<path d="M5573 3635 c-90 -27 -167 -98 -211 -194 -36 -80 -36 -191 0 -278 30
-74 59 -111 118 -151 163 -111 362 -52 456 134 26 52 29 67 29 153 0 84 -3
103 -27 151 -75 152 -223 227 -365 185z m172 -72 c47 -20 112 -84 121 -119 3
-13 9 -24 13 -24 4 0 8 -6 9 -12 0 -7 5 -29 9 -48 9 -37 9 -50 0 -117 -18
-124 -125 -225 -239 -225 -74 -1 -130 26 -183 84 -54 60 -73 119 -70 213 5
129 67 219 177 256 59 20 103 17 163 -8z"/>
<path d="M6229 3641 c-13 -5 -15 -55 -15 -343 l-1 -338 34 0 c39 0 34 -38 34
313 1 132 2 237 4 235 1 -1 26 -43 54 -93 29 -49 56 -97 61 -105 5 -8 36 -63
70 -121 55 -95 64 -105 86 -101 13 2 24 8 24 12 0 7 113 208 127 225 5 6 16
26 25 45 10 19 32 59 51 88 l35 53 -1 -271 c0 -148 2 -272 4 -274 2 -2 17 -6
34 -8 l30 -3 0 339 c0 328 0 339 -19 346 -11 4 -27 5 -36 3 -13 -4 -154 -238
-244 -405 -30 -55 -46 -72 -46 -46 0 6 -6 19 -14 27 -8 9 -27 40 -42 69 -16
29 -33 61 -39 70 -68 116 -115 202 -115 211 0 6 -3 11 -8 11 -4 0 -13 13 -20
29 -13 29 -45 43 -73 32z"/>
<path d="M7205 3640 l-31 -5 1 -335 0 -335 33 -3 c38 -4 34 -46 33 346 l0 272
47 1 c196 2 334 0 339 -5 4 -4 7 -143 7 -309 l1 -302 33 -3 32 -3 0 78 c2 337
0 596 -4 600 -7 7 -452 9 -491 3z"/>
<path d="M8107 3642 c-9 -2 -18 -13 -18 -25 -1 -12 -3 -35 -4 -52 -2 -16 -6
-66 -10 -110 -4 -44 -8 -91 -10 -105 -8 -60 -16 -107 -21 -130 -3 -14 -8 -36
-10 -49 -3 -13 -17 -48 -31 -77 -20 -42 -33 -56 -59 -64 -25 -9 -34 -17 -34
-34 0 -35 17 -46 54 -34 74 25 123 114 150 278 3 14 5 25 6 25 3 0 17 126 26
230 3 44 7 81 9 83 1 2 49 4 106 4 l104 1 3 -312 2 -312 33 3 32 3 1 338 c1
300 -1 337 -15 338 -52 3 -300 3 -314 1z"/>
<path d="M8738 3639 c-10 -6 -15 -665 -5 -675 3 -3 92 -6 199 -6 281 1 254 -3
253 32 l0 30 -185 -1 c-102 0 -190 0 -195 0 -6 1 -10 50 -10 131 l0 129 145 0
c206 -1 189 -3 188 29 l-1 28 -146 -1 c-80 0 -155 1 -166 3 -19 3 -20 11 -20
117 0 62 3 116 7 120 4 4 89 8 190 9 l183 1 1 28 c1 15 -4 27 -10 28 -82 4
-420 2 -428 -2z"/>
<path d="M9447 3641 c-17 -6 -18 -27 -18 -311 0 -168 0 -320 1 -337 0 -30 3
-33 33 -33 l32 0 0 148 c-1 81 1 152 3 159 2 8 23 12 55 12 50 -1 53 -3 87
-48 19 -25 37 -48 40 -51 3 -3 17 -21 30 -40 13 -19 27 -37 30 -40 4 -3 28
-34 54 -70 57 -77 58 -78 95 -72 l29 4 -36 52 c-31 43 -88 120 -120 161 -4 6
-29 40 -55 76 l-47 66 63 84 c34 46 65 86 70 87 4 2 7 8 7 13 0 5 21 36 46 70
49 64 48 81 -2 71 -27 -5 -30 -8 -142 -162 -42 -58 -84 -113 -93 -123 -15 -17
-86 -27 -105 -14 -6 3 -9 68 -9 147 1 118 -2 143 -15 150 -8 4 -23 5 -33 1z"/>
<path d="M10285 3633 c-91 -27 -170 -99 -212 -193 -9 -20 -17 -72 -19 -122 -3
-91 13 -151 61 -223 56 -84 157 -140 251 -138 108 1 221 59 259 133 14 27 14
29 -12 37 -24 8 -32 5 -68 -33 -50 -54 -104 -77 -177 -76 -89 1 -151 39 -207
126 -71 113 -54 274 37 365 74 74 172 95 264 57 36 -16 98 -70 98 -87 0 -13
23 -11 45 5 18 13 18 14 0 42 -63 99 -196 143 -320 107z"/>
</g>
</svg>
